{"title":"My.Wifes.Hot.Friend.Sophie.Dee.sexual.cleaning.that.is.XXX.wmv","uid":10620190,"size":375214023,"categoryP":"porn","categoryS":"movies","magnet":"?xt=urn:btih:ec4a1c3959cfeb3ac6a9dd8c7c9e648902db1148&amp;dn=My.Wifes.Hot.Friend.Sophie.Dee.sexual.cleaning.that.is.XXX.wmv&amp;tr=udp%3A%2F%2Ftracker.openbittorrent.com%3A80&amp;tr=udp%3A%2F%2Fopen.demonii.com%3A1337&amp;tr=udp%3A%2F%2Ftracker.coppersurfer.tk%3A6969&amp;tr=udp%3A%2F%2Fexodus.desync.com%3A6969","seeders":1,"leechers":0,"uploader":"XXXmegathor","files":1,"time":1406160452,"description":"My.Wifes.Hot.Friend.Sophie.Dee.sexual.cleaning.that.is.XXX\n\nSCREENIES &lt;a href=&quot;\nhttp://www.xxxtrapics.com/image/Ry&quot; rel=&quot;nofollow&quot; target=&quot;_NEW&quot;&gt;\nhttp://www.xxxtrapics.com/image/Ry&lt;/a&gt;\n\n\nDuration : 23mn 46s\nBit rate mode : Constant\nBit rate : 2 000 Kbps\nWidth : 850 pixels\nHeight : 480 pixels\nDisplay aspect ratio : 16:9\nFrame rate : 29.970 fps\nBit depth : 8 bits\nScan type : Progressive\nCompression mode : Lossy\nBits/(Pixel*Frame) : 0.164\nStream size : 340 MiB (95%)\nLanguage : English (US)\n\nAudio\nID : 1\nFormat : WMA\nFormat version : Version 2\nCodec ID : 161\nCodec ID/Info : Windows Media Audio\nDescription of the codec : Windows Media Audio 9.2 - 96 kbps, 48 kHz, stereo (A/V) 1-pass CBR\nDuration : 23mn 46s\nBit rate mode : Constant\nBit rate : 96.0 Kbps\nChannel(s) : 2 channels\nSampling rate : 48.0 KHz\nBit depth : 16 bits\nStream size : 16.3 MiB (5%)\nLanguage : English (US)","torrent":{"xt":"urn:btih:ec4a1c3959cfeb3ac6a9dd8c7c9e648902db1148","amp;dn":"My.Wifes.Hot.Friend.Sophie.Dee.sexual.cleaning.that.is.XXX.wmv","amp;tr":["udp%3A%2F%2Ftracker.openbittorrent.com%3A80","udp%3A%2F%2Fopen.demonii.com%3A1337","udp%3A%2F%2Ftracker.coppersurfer.tk%3A6969","udp%3A%2F%2Fexodus.desync.com%3A6969"],"infoHash":"ec4a1c3959cfeb3ac6a9dd8c7c9e648902db1148","infoHashBuffer":{"type":"Buffer","data":[236,74,28,57,89,207,235,58,198,169,221,140,124,158,100,137,2,219,17,72]},"announce":[],"urlList":[]}}